<svg width="275" height="45" viewBox="0 0 275 45" fill="none" xmlns="http://www.w3.org/2000/svg">
<path d="M64.5798 12.13V26.68C64.5798 28.34 64.9998 29.67 65.8398 30.67C66.6998 31.65 67.9998 32.14 69.7398 32.14C70.9398 32.14 71.9398 31.9 72.7398 31.42C73.5598 30.92 74.1798 30.24 74.5998 29.38C75.0198 28.5 75.2298 27.48 75.2298 26.32V12.13H77.7198V26.14C77.7198 27.9 77.3898 29.39 76.7298 30.61C76.0898 31.83 75.1598 32.76 73.9398 33.4C72.7198 34.04 71.2598 34.36 69.5598 34.36C66.9998 34.36 65.0098 33.69 63.5898 32.35C62.1898 31.01 61.4898 29.06 61.4898 26.5V14.08L61.0098 12.13H64.5798Z" fill="#2C5331"/>
<path d="M87.8007 18.73C89.3807 18.73 90.5807 19.16 91.4007 20.02C92.2207 20.86 92.6307 22.07 92.6307 23.65V30.94C92.6307 31.4 92.7107 31.71 92.8707 31.87C93.0307 32.01 93.2307 32.08 93.4707 32.08C93.6507 32.08 93.8407 32.06 94.0407 32.02C94.2407 31.98 94.4307 31.92 94.6107 31.84L95.1507 33.52C94.8107 33.72 94.3907 33.89 93.8907 34.03C93.3907 34.19 92.8807 34.27 92.3607 34.27C91.8007 34.27 91.3107 34.13 90.8907 33.85C90.4707 33.55 90.2007 33.01 90.0807 32.23C89.5007 32.87 88.8207 33.38 88.0407 33.76C87.2807 34.14 86.4607 34.33 85.5807 34.33C84.4007 34.33 83.4107 33.99 82.6107 33.31C81.8307 32.61 81.4407 31.65 81.4407 30.43C81.4407 29.29 81.7107 28.38 82.2507 27.7C82.8107 27.02 83.5207 26.51 84.3807 26.17C85.2607 25.81 86.1907 25.57 87.1707 25.45C88.1507 25.33 89.0707 25.27 89.9307 25.27V23.62C89.9307 23.06 89.8607 22.57 89.7207 22.15C89.5807 21.73 89.3307 21.4 88.9707 21.16C88.6107 20.9 88.1207 20.77 87.5007 20.77C86.7607 20.77 86.0407 20.93 85.3407 21.25C84.6407 21.57 83.9607 22 83.3007 22.54L82.0107 20.65C82.8507 20.01 83.7607 19.53 84.7407 19.21C85.7407 18.89 86.7607 18.73 87.8007 18.73ZM89.9307 27.31C89.4107 27.31 88.8207 27.34 88.1607 27.4C87.5207 27.44 86.9007 27.55 86.3007 27.73C85.7007 27.91 85.2007 28.21 84.8007 28.63C84.4207 29.03 84.2307 29.58 84.2307 30.28C84.2307 30.9 84.4407 31.36 84.8607 31.66C85.3007 31.96 85.8407 32.11 86.4807 32.11C87.1607 32.11 87.7607 31.92 88.2807 31.54C88.8007 31.14 89.2007 30.65 89.4807 30.07C89.7807 29.47 89.9307 28.85 89.9307 28.21V27.31Z" fill="#2C5331"/>
<path d="M100.135 11.11V34H97.4349V12.82L97.0449 11.11H100.135Z" fill="#2C5331"/>
<path d="M111.834 18.79C112.874 18.79 113.784 19.01 114.564 19.45C115.344 19.89 115.984 20.49 116.484 21.25C117.004 21.99 117.384 22.81 117.624 23.71C117.884 24.61 118.014 25.53 118.014 26.47C118.014 27.49 117.874 28.47 117.594 29.41C117.334 30.35 116.924 31.2 116.364 31.96C115.804 32.7 115.104 33.29 114.264 33.73C113.444 34.17 112.474 34.39 111.354 34.39C110.514 34.39 109.704 34.23 108.924 33.91C108.164 33.59 107.514 33.1 106.974 32.44L106.404 34.03H104.844C104.864 33.69 104.884 33.35 104.904 33.01C104.924 32.65 104.934 32.31 104.934 31.99V12.82L104.514 11.11H107.634V19.21C107.634 19.45 107.624 19.67 107.604 19.87C107.604 20.07 107.594 20.26 107.574 20.44C108.214 19.86 108.864 19.44 109.524 19.18C110.204 18.92 110.974 18.79 111.834 18.79ZM111.084 21.04C110.444 21.04 109.814 21.19 109.194 21.49C108.594 21.79 108.074 22.17 107.634 22.63V28C107.634 28.8 107.744 29.54 107.964 30.22C108.204 30.88 108.594 31.41 109.134 31.81C109.674 32.21 110.384 32.41 111.264 32.41C112.004 32.41 112.624 32.22 113.124 31.84C113.624 31.46 114.014 30.97 114.294 30.37C114.574 29.77 114.784 29.14 114.924 28.48C115.064 27.8 115.134 27.17 115.134 26.59C115.134 25.95 115.054 25.31 114.894 24.67C114.754 24.01 114.524 23.41 114.204 22.87C113.884 22.33 113.464 21.89 112.944 21.55C112.444 21.21 111.824 21.04 111.084 21.04Z" fill="#2C5331"/>
<path d="M127.363 18.73C128.603 18.73 129.633 18.99 130.453 19.51C131.293 20.01 131.913 20.7 132.313 21.58C132.733 22.46 132.943 23.47 132.943 24.61C132.943 24.91 132.923 25.21 132.883 25.51C132.863 25.81 132.833 26.12 132.793 26.44H123.373C123.373 28.28 123.783 29.71 124.603 30.73C125.423 31.73 126.523 32.23 127.903 32.23C128.483 32.23 129.083 32.14 129.703 31.96C130.343 31.76 131.013 31.48 131.713 31.12L132.643 32.71C131.943 33.27 131.133 33.69 130.213 33.97C129.313 34.25 128.423 34.39 127.543 34.39C126.363 34.39 125.333 34.18 124.453 33.76C123.573 33.34 122.843 32.77 122.263 32.05C121.683 31.33 121.243 30.51 120.943 29.59C120.663 28.65 120.523 27.69 120.523 26.71C120.523 25.69 120.663 24.71 120.943 23.77C121.223 22.83 121.653 21.98 122.233 21.22C122.813 20.44 123.523 19.83 124.363 19.39C125.223 18.95 126.223 18.73 127.363 18.73ZM127.153 20.71C126.473 20.71 125.873 20.9 125.353 21.28C124.853 21.66 124.453 22.14 124.153 22.72C123.853 23.3 123.643 23.89 123.523 24.49H130.123C130.163 23.69 130.063 23.01 129.823 22.45C129.603 21.89 129.263 21.46 128.803 21.16C128.343 20.86 127.793 20.71 127.153 20.71Z" fill="#2C5331"/>
<path d="M138.407 18.82C138.787 19.72 139.027 20.67 139.127 21.67C139.627 20.85 140.317 20.17 141.197 19.63C142.097 19.09 143.037 18.82 144.017 18.82L143.417 21.64C142.477 21.64 141.667 21.89 140.987 22.39C140.307 22.87 139.697 23.5 139.157 24.28V34H136.487V23.17C136.487 22.79 136.457 22.35 136.397 21.85C136.337 21.33 136.237 20.83 136.097 20.35C135.957 19.87 135.767 19.47 135.527 19.15L138.407 18.82Z" fill="#2C5331"/>
<path d="M151.251 14.8C151.111 15.5 150.981 16.22 150.861 16.96C150.761 17.68 150.691 18.39 150.651 19.09H154.521L153.981 21.07H150.651V30.37C150.651 30.73 150.691 31.06 150.771 31.36C150.851 31.64 151.001 31.87 151.221 32.05C151.461 32.21 151.781 32.29 152.181 32.29C152.521 32.29 152.851 32.26 153.171 32.2C153.491 32.14 153.801 32.07 154.101 31.99L154.521 33.76C154.021 33.9 153.521 34.03 153.021 34.15C152.541 34.27 152.011 34.33 151.431 34.33C150.151 34.33 149.251 34 148.731 33.34C148.211 32.66 147.951 31.7 147.951 30.46V21.07H145.701V19.48C146.301 19.46 146.801 19.3 147.201 19C147.621 18.7 147.961 18.32 148.221 17.86C148.501 17.38 148.721 16.88 148.881 16.36C149.061 15.82 149.201 15.3 149.301 14.8H151.251Z" fill="#2C5331"/>
<path d="M162.684 18.73C164.264 18.73 165.464 19.16 166.284 20.02C167.104 20.86 167.514 22.07 167.514 23.65V30.94C167.514 31.4 167.594 31.71 167.754 31.87C167.914 32.01 168.114 32.08 168.354 32.08C168.534 32.08 168.724 32.06 168.924 32.02C169.124 31.98 169.314 31.92 169.494 31.84L170.034 33.52C169.694 33.72 169.274 33.89 168.774 34.03C168.274 34.19 167.764 34.27 167.244 34.27C166.684 34.27 166.194 34.13 165.774 33.85C165.354 33.55 165.084 33.01 164.964 32.23C164.384 32.87 163.704 33.38 162.924 33.76C162.164 34.14 161.344 34.33 160.464 34.33C159.284 34.33 158.294 33.99 157.494 33.31C156.714 32.61 156.324 31.65 156.324 30.43C156.324 29.29 156.594 28.38 157.134 27.7C157.694 27.02 158.404 26.51 159.264 26.17C160.144 25.81 161.074 25.57 162.054 25.45C163.034 25.33 163.954 25.27 164.814 25.27V23.62C164.814 23.06 164.744 22.57 164.604 22.15C164.464 21.73 164.214 21.4 163.854 21.16C163.494 20.9 163.004 20.77 162.384 20.77C161.644 20.77 160.924 20.93 160.224 21.25C159.524 21.57 158.844 22 158.184 22.54L156.894 20.65C157.734 20.01 158.644 19.53 159.624 19.21C160.624 18.89 161.644 18.73 162.684 18.73ZM164.814 27.31C164.294 27.31 163.704 27.34 163.044 27.4C162.404 27.44 161.784 27.55 161.184 27.73C160.584 27.91 160.084 28.21 159.684 28.63C159.304 29.03 159.114 29.58 159.114 30.28C159.114 30.9 159.324 31.36 159.744 31.66C160.184 31.96 160.724 32.11 161.364 32.11C162.044 32.11 162.644 31.92 163.164 31.54C163.684 31.14 164.084 30.65 164.364 30.07C164.664 29.47 164.814 28.85 164.814 28.21V27.31Z" fill="#2C5331"/>
<path d="M181.31 35.36C179.57 35.36 178.07 35.07 176.81 34.49C175.55 33.89 174.5 33.07 173.66 32.03C172.84 30.99 172.23 29.82 171.83 28.52C171.43 27.2 171.23 25.82 171.23 24.38C171.23 22.86 171.45 21.41 171.89 20.03C172.35 18.65 173.01 17.42 173.87 16.34C174.73 15.24 175.8 14.38 177.08 13.76C178.36 13.14 179.84 12.83 181.52 12.83C182.22 12.83 182.99 12.91 183.83 13.07C184.67 13.23 185.48 13.48 186.26 13.82C187.04 14.16 187.68 14.6 188.18 15.14L186.5 17.06C186.12 16.64 185.64 16.28 185.06 15.98C184.5 15.68 183.9 15.46 183.26 15.32C182.64 15.16 182.05 15.08 181.49 15.08C180.33 15.08 179.32 15.34 178.46 15.86C177.6 16.36 176.88 17.06 176.3 17.96C175.72 18.84 175.28 19.83 174.98 20.93C174.7 22.01 174.56 23.11 174.56 24.23C174.56 26.03 174.84 27.59 175.4 28.91C175.98 30.21 176.79 31.22 177.83 31.94C178.87 32.64 180.1 32.99 181.52 32.99C182.36 32.99 183.26 32.87 184.22 32.63C185.2 32.39 186.21 32.01 187.25 31.49L188.24 33.29C187.78 33.61 187.26 33.9 186.68 34.16C186.12 34.42 185.53 34.64 184.91 34.82C184.29 35 183.67 35.13 183.05 35.21C182.43 35.31 181.85 35.36 181.31 35.36Z" fill="#EFC903"/>
<path d="M195.997 35.39C194.537 35.39 193.297 35.03 192.277 34.31C191.277 33.59 190.527 32.64 190.027 31.46C189.527 30.28 189.277 29.01 189.277 27.65C189.277 26.63 189.427 25.65 189.727 24.71C190.027 23.75 190.477 22.9 191.077 22.16C191.677 21.4 192.407 20.81 193.267 20.39C194.127 19.95 195.097 19.73 196.177 19.73C197.657 19.73 198.897 20.09 199.897 20.81C200.917 21.51 201.677 22.45 202.177 23.63C202.677 24.81 202.927 26.09 202.927 27.47C202.927 28.49 202.767 29.48 202.447 30.44C202.147 31.38 201.707 32.22 201.127 32.96C200.547 33.7 199.827 34.29 198.967 34.73C198.107 35.17 197.117 35.39 195.997 35.39ZM196.027 33.41C196.787 33.41 197.427 33.23 197.947 32.87C198.467 32.49 198.877 32.01 199.177 31.43C199.497 30.83 199.717 30.19 199.837 29.51C199.977 28.83 200.047 28.18 200.047 27.56C200.047 26.92 199.987 26.26 199.867 25.58C199.747 24.9 199.547 24.27 199.267 23.69C198.987 23.11 198.587 22.64 198.067 22.28C197.547 21.9 196.907 21.71 196.147 21.71C195.387 21.71 194.747 21.9 194.227 22.28C193.727 22.64 193.317 23.12 192.997 23.72C192.697 24.3 192.477 24.93 192.337 25.61C192.217 26.29 192.157 26.94 192.157 27.56C192.157 28.16 192.217 28.8 192.337 29.48C192.477 30.16 192.687 30.8 192.967 31.4C193.267 31.98 193.667 32.46 194.167 32.84C194.667 33.22 195.287 33.41 196.027 33.41Z" fill="#EFC903"/>
<path d="M208.304 19.82C208.444 20.16 208.554 20.51 208.634 20.87C208.734 21.23 208.804 21.58 208.844 21.92C209.444 21.34 210.154 20.83 210.974 20.39C211.794 19.95 212.634 19.73 213.494 19.73C214.594 19.73 215.474 19.96 216.134 20.42C216.814 20.86 217.294 21.48 217.574 22.28C217.874 23.06 218.024 23.97 218.024 25.01V35H215.354V25.73C215.354 25.15 215.304 24.58 215.204 24.02C215.124 23.44 214.914 22.97 214.574 22.61C214.254 22.25 213.714 22.07 212.954 22.07C212.494 22.07 212.024 22.16 211.544 22.34C211.064 22.52 210.604 22.76 210.164 23.06C209.744 23.34 209.364 23.64 209.024 23.96V35H206.354V24.41C206.354 24.03 206.324 23.58 206.264 23.06C206.204 22.52 206.104 21.99 205.964 21.47C205.824 20.95 205.624 20.53 205.364 20.21L208.304 19.82Z" fill="#EFC903"/>
<path d="M224.711 19.82C224.851 20.16 224.961 20.51 225.041 20.87C225.141 21.23 225.211 21.58 225.251 21.92C225.851 21.34 226.561 20.83 227.381 20.39C228.201 19.95 229.041 19.73 229.901 19.73C231.001 19.73 231.881 19.96 232.541 20.42C233.221 20.86 233.701 21.48 233.981 22.28C234.281 23.06 234.431 23.97 234.431 25.01V35H231.761V25.73C231.761 25.15 231.711 24.58 231.611 24.02C231.531 23.44 231.321 22.97 230.981 22.61C230.661 22.25 230.121 22.07 229.361 22.07C228.901 22.07 228.431 22.16 227.951 22.34C227.471 22.52 227.011 22.76 226.571 23.06C226.151 23.34 225.771 23.64 225.431 23.96V35H222.761V24.41C222.761 24.03 222.731 23.58 222.671 23.06C222.611 22.52 222.511 21.99 222.371 21.47C222.231 20.95 222.031 20.53 221.771 20.21L224.711 19.82Z" fill="#EFC903"/>
<path d="M244.867 19.73C246.107 19.73 247.137 19.99 247.957 20.51C248.797 21.01 249.417 21.7 249.817 22.58C250.237 23.46 250.447 24.47 250.447 25.61C250.447 25.91 250.427 26.21 250.387 26.51C250.367 26.81 250.337 27.12 250.297 27.44H240.877C240.877 29.28 241.287 30.71 242.107 31.73C242.927 32.73 244.027 33.23 245.407 33.23C245.987 33.23 246.587 33.14 247.207 32.96C247.847 32.76 248.517 32.48 249.217 32.12L250.147 33.71C249.447 34.27 248.637 34.69 247.717 34.97C246.817 35.25 245.927 35.39 245.047 35.39C243.867 35.39 242.837 35.18 241.957 34.76C241.077 34.34 240.347 33.77 239.767 33.05C239.187 32.33 238.747 31.51 238.447 30.59C238.167 29.65 238.027 28.69 238.027 27.71C238.027 26.69 238.167 25.71 238.447 24.77C238.727 23.83 239.157 22.98 239.737 22.22C240.317 21.44 241.027 20.83 241.867 20.39C242.727 19.95 243.727 19.73 244.867 19.73ZM244.657 21.71C243.977 21.71 243.377 21.9 242.857 22.28C242.357 22.66 241.957 23.14 241.657 23.72C241.357 24.3 241.147 24.89 241.027 25.49H247.627C247.667 24.69 247.567 24.01 247.327 23.45C247.107 22.89 246.767 22.46 246.307 22.16C245.847 21.86 245.297 21.71 244.657 21.71Z" fill="#EFC903"/>
<path d="M259.901 19.73C260.641 19.73 261.401 19.86 262.181 20.12C262.981 20.36 263.731 20.73 264.431 21.23L263.021 23.09C262.461 22.65 261.921 22.33 261.401 22.13C260.881 21.91 260.361 21.8 259.841 21.8C259.221 21.8 258.661 21.95 258.161 22.25C257.681 22.53 257.251 22.93 256.871 23.45C256.511 23.95 256.231 24.55 256.031 25.25C255.851 25.95 255.761 26.71 255.761 27.53C255.761 29.37 256.171 30.79 256.991 31.79C257.811 32.77 258.861 33.26 260.141 33.26C260.721 33.26 261.281 33.17 261.821 32.99C262.381 32.81 262.961 32.55 263.561 32.21L264.371 33.89C263.571 34.39 262.801 34.76 262.061 35C261.321 35.26 260.491 35.39 259.571 35.39C258.231 35.39 257.051 35.06 256.031 34.4C255.031 33.74 254.251 32.82 253.691 31.64C253.131 30.44 252.851 29.04 252.851 27.44C252.851 25.88 253.161 24.52 253.781 23.36C254.421 22.2 255.271 21.31 256.331 20.69C257.411 20.05 258.601 19.73 259.901 19.73Z" fill="#EFC903"/>
<path d="M271.656 15.8C271.516 16.5 271.386 17.22 271.266 17.96C271.166 18.68 271.096 19.39 271.056 20.09H274.926L274.386 22.07H271.056V31.37C271.056 31.73 271.096 32.06 271.176 32.36C271.256 32.64 271.406 32.87 271.626 33.05C271.866 33.21 272.186 33.29 272.586 33.29C272.926 33.29 273.256 33.26 273.576 33.2C273.896 33.14 274.206 33.07 274.506 32.99L274.926 34.76C274.426 34.9 273.926 35.03 273.426 35.15C272.946 35.27 272.416 35.33 271.836 35.33C270.556 35.33 269.656 35 269.136 34.34C268.616 33.66 268.356 32.7 268.356 31.46V22.07H266.106V20.48C266.706 20.46 267.206 20.3 267.606 20C268.026 19.7 268.366 19.32 268.626 18.86C268.906 18.38 269.126 17.88 269.286 17.36C269.466 16.82 269.606 16.3 269.706 15.8H271.656Z" fill="#EFC903"/>
<rect width="55" height="45" rx="3" fill="#2C5331"/>
<path d="M8.25 13.275V25.425C8.25 26.7583 8.6 27.825 9.3 28.625C10.0167 29.425 11.0667 29.825 12.45 29.825C13.4 29.825 14.2 29.6333 14.85 29.25C15.5167 28.8667 16.0167 28.3333 16.35 27.65C16.7 26.95 16.875 26.1333 16.875 25.2V13.275H19.175V24.875C19.175 26.4083 18.8917 27.6917 18.325 28.725C17.7583 29.7583 16.95 30.5333 15.9 31.05C14.8667 31.5667 13.65 31.825 12.25 31.825C10.0667 31.825 8.375 31.25 7.175 30.1C5.975 28.9333 5.375 27.2583 5.375 25.075V14.875L5 13.275H8.25Z" fill="#EFC903"/>
<path d="M29.7863 13.275L36.1613 31.525H33.1113L31.1363 25.7H25.3863L23.3863 31.525H20.9363L27.3363 13.275H29.7863ZM28.2863 16.875L26.0613 23.675H30.4613L28.2863 16.875Z" fill="#EFC903"/>
<path d="M45.0754 31.825C43.6254 31.825 42.3671 31.5833 41.3004 31.1C40.2504 30.6 39.3671 29.925 38.6504 29.075C37.9504 28.2083 37.4254 27.2167 37.0754 26.1C36.7421 24.9833 36.5754 23.8 36.5754 22.55C36.5754 21.2667 36.7671 20.05 37.1504 18.9C37.5337 17.75 38.0837 16.7333 38.8004 15.85C39.5337 14.9667 40.4337 14.275 41.5004 13.775C42.5837 13.2583 43.8171 13 45.2004 13C45.8004 13 46.4504 13.0667 47.1504 13.2C47.8671 13.3333 48.5587 13.5417 49.2254 13.825C49.8921 14.0917 50.4337 14.4417 50.8504 14.875L49.3504 16.7C49.0337 16.3333 48.6421 16.0333 48.1754 15.8C47.7087 15.55 47.2171 15.3583 46.7004 15.225C46.1837 15.0917 45.6921 15.025 45.2254 15.025C44.2587 15.025 43.4254 15.2333 42.7254 15.65C42.0254 16.0667 41.4421 16.6333 40.9754 17.35C40.5254 18.0667 40.1837 18.8667 39.9504 19.75C39.7337 20.6333 39.6254 21.5333 39.6254 22.45C39.6254 23.95 39.8504 25.2417 40.3004 26.325C40.7671 27.4083 41.4254 28.2417 42.2754 28.825C43.1254 29.4083 44.1337 29.7 45.3004 29.7C46.0004 29.7 46.7504 29.6083 47.5504 29.425C48.3504 29.225 49.1837 28.9 50.0504 28.45L50.9254 30.05C50.5087 30.35 50.0671 30.6083 49.6004 30.825C49.1337 31.0417 48.6421 31.225 48.1254 31.375C47.6254 31.525 47.1171 31.6333 46.6004 31.7C46.0837 31.7833 45.5754 31.825 45.0754 31.825Z" fill="#EFC903"/>
</svg>
